<svg width="57" height="57" viewBox="0 0 57 57" fill="none" xmlns="http://www.w3.org/2000/svg">
    <g opacity="0.55">
        <path fill-rule="evenodd" clip-rule="evenodd" d="M41.2915 37.3917C44.0115 27.2323 37.5452 16.7055 26.8922 13.8509C14.9269 10.6429 -2.03253 18.9628 1.52593 29.0241C2.59992 32.0638 4.70583 32.7845 9.04665 32.8462L9.3495 32.8518C12.4341 32.8882 13.4744 33.1322 14.0549 34.0744C14.6549 35.0502 14.6605 36.1943 14.2063 39.0882C14.0184 40.2715 13.9595 40.6838 13.8894 41.3147C13.4828 44.9601 14.0773 47.6913 16.3851 50.1758C23.631 57.9825 38.2238 48.8326 41.2915 37.3917ZM4.16744 28.0903C1.62127 20.8837 15.9925 13.8341 26.166 16.5597C35.3551 19.0217 40.8933 28.0371 38.5827 36.6654C35.9917 46.3285 23.7572 54.0006 18.4405 48.2746C16.7749 46.4799 16.3514 44.5366 16.6739 41.6287C16.7412 41.0539 16.7973 40.6641 16.9768 39.5256C17.5376 35.9504 17.5292 34.3772 16.444 32.6078C15.1401 30.4879 13.4744 30.1009 9.38595 30.0504L9.08591 30.0448C5.8359 30 4.70583 29.613 4.16744 28.0903Z" fill="white"/>
        <path d="M13.3196 26.6363C12.39 26.6363 11.4984 26.267 10.8411 25.6096C10.1837 24.9523 9.81445 24.0607 9.81445 23.1311C9.81445 22.2015 10.1837 21.3099 10.8411 20.6525C11.4984 19.9952 12.39 19.6259 13.3196 19.6259C14.2493 19.6259 15.1408 19.9952 15.7982 20.6525C16.4555 21.3099 16.8248 22.2015 16.8248 23.1311C16.8248 24.0607 16.4555 24.9523 15.7982 25.6096C15.1408 26.267 14.2493 26.6363 13.3196 26.6363ZM24.5362 26.6363C23.6066 26.6363 22.715 26.267 22.0577 25.6096C21.4003 24.9523 21.031 24.0607 21.031 23.1311C21.031 22.2015 21.4003 21.3099 22.0577 20.6525C22.715 19.9952 23.6066 19.6259 24.5362 19.6259C25.4658 19.6259 26.3574 19.9952 27.0148 20.6525C27.6721 21.3099 28.0414 22.2015 28.0414 23.1311C28.0414 24.0607 27.6721 24.9523 27.0148 25.6096C26.3574 26.267 25.4658 26.6363 24.5362 26.6363ZM31.5466 35.0487C30.6169 35.0487 29.7254 34.6794 29.068 34.0221C28.4107 33.3647 28.0414 32.4732 28.0414 31.5435C28.0414 30.6139 28.4107 29.7223 29.068 29.065C29.7254 28.4076 30.6169 28.0383 31.5466 28.0383C32.4762 28.0383 33.3678 28.4076 34.0251 29.065C34.6825 29.7223 35.0518 30.6139 35.0518 31.5435C35.0518 32.4732 34.6825 33.3647 34.0251 34.0221C33.3678 34.6794 32.4762 35.0487 31.5466 35.0487ZM27.3404 44.8632C26.4107 44.8632 25.5192 44.4939 24.8618 43.8366C24.2045 43.1792 23.8352 42.2877 23.8352 41.358C23.8352 40.4284 24.2045 39.5368 24.8618 38.8795C25.5192 38.2221 26.4107 37.8528 27.3404 37.8528C28.27 37.8528 29.1615 38.2221 29.8189 38.8795C30.4762 39.5368 30.8455 40.4284 30.8455 41.358C30.8455 42.2877 30.4762 43.1792 29.8189 43.8366C29.1615 44.4939 28.27 44.8632 27.3404 44.8632ZM37.4914 10.1058C37.8239 9.9277 38.1889 9.81847 38.5646 9.7847C38.9402 9.75093 39.3189 9.7933 39.6778 9.90928C40.0367 10.0253 40.3686 10.2125 40.6535 10.4597C40.9384 10.7069 41.1705 11.0091 41.3358 11.3481L52.8132 34.9029C53.0048 35.3263 53.028 35.8068 52.8781 36.2467C52.7282 36.6865 52.4163 37.0528 52.006 37.271C51.5956 37.4892 51.1176 37.543 50.6691 37.4213C50.2205 37.2997 49.8351 37.0118 49.5913 36.6162L36.3893 13.9868C36.2003 13.661 36.0789 13.3006 36.0323 12.9269C35.9856 12.5532 36.0147 12.1739 36.1178 11.8117C36.2209 11.4495 36.3959 11.1118 36.6324 10.8187C36.8689 10.5256 37.162 10.2832 37.4942 10.1058" fill="white"/>
        <path fill-rule="evenodd" clip-rule="evenodd" d="M32.3551 9.76943C33.7179 12.3352 36.0145 13.0531 38.2354 11.8725C40.4535 10.6948 41.1461 8.38698 39.7805 5.82119C38.2214 2.88245 34.8788 0.218508 32.6635 1.39344C30.4483 2.56838 30.7904 6.83068 32.3551 9.76943ZM34.8283 8.45148C34.334 7.4536 34.0297 6.37241 33.931 5.26316C33.89 4.79925 33.907 4.33203 33.9815 3.87231L34.032 3.89755C34.1722 3.96485 34.6068 4.16674 35.162 4.6098C36.0089 5.2856 36.8501 6.28107 37.3044 7.13633C37.9466 8.34212 37.7643 8.94781 36.9174 9.39928C36.0762 9.84794 35.4705 9.65726 34.8283 8.45428" fill="white"/>
    </g>
</svg>
