<svg width="14" height="15" viewBox="0 0 14 15" fill="none" xmlns="http://www.w3.org/2000/svg">
    <path d="M6.95828 5.71453C6.497 5.71453 6.05461 5.89778 5.72844 6.22395C5.40226 6.55013 5.21902 6.99252 5.21902 7.4538C5.21902 7.91508 5.40226 8.35747 5.72844 8.68364C6.05461 9.00982 6.497 9.19306 6.95828 9.19306C7.41956 9.19306 7.86195 9.00982 8.18813 8.68364C8.5143 8.35747 8.69755 7.91508 8.69755 7.4538C8.69755 6.99252 8.5143 6.55013 8.18813 6.22395C7.86195 5.89778 7.41956 5.71453 6.95828 5.71453ZM6.95828 4.55502C7.72709 4.55502 8.4644 4.86043 9.00803 5.40405C9.55165 5.94768 9.85706 6.68499 9.85706 7.4538C9.85706 8.2226 9.55165 8.95991 9.00803 9.50354C8.4644 10.0472 7.72709 10.3526 6.95828 10.3526C6.18948 10.3526 5.45217 10.0472 4.90854 9.50354C4.36492 8.95991 4.05951 8.2226 4.05951 7.4538C4.05951 6.68499 4.36492 5.94768 4.90854 5.40405C5.45217 4.86043 6.18948 4.55502 6.95828 4.55502ZM10.7267 4.41008C10.7267 4.60229 10.6503 4.78661 10.5144 4.92252C10.3785 5.05843 10.1942 5.13478 10.002 5.13478C9.80979 5.13478 9.62547 5.05843 9.48956 4.92252C9.35365 4.78661 9.2773 4.60229 9.2773 4.41008C9.2773 4.21788 9.35365 4.03356 9.48956 3.89765C9.62547 3.76174 9.80979 3.68539 10.002 3.68539C10.1942 3.68539 10.3785 3.76174 10.5144 3.89765C10.6503 4.03356 10.7267 4.21788 10.7267 4.41008ZM6.95828 2.81576C5.52397 2.81576 5.28975 2.81982 4.62245 2.84939C4.16792 2.87084 3.86297 2.93171 3.58005 3.04186C3.34342 3.12904 3.12942 3.26834 2.95392 3.44943C2.77261 3.62488 2.63312 3.83887 2.54577 4.07557C2.43562 4.35965 2.37474 4.66402 2.35387 5.11797C2.32372 5.75801 2.31967 5.9818 2.31967 7.4538C2.31967 8.88869 2.32372 9.12233 2.35329 9.78963C2.37474 10.2436 2.43562 10.5491 2.54519 10.8314C2.64375 11.0836 2.7597 11.2651 2.95218 11.4576C3.14756 11.6524 3.32902 11.7689 3.57831 11.8651C3.86471 11.9759 4.16966 12.0373 4.62187 12.0582C5.26192 12.0884 5.48571 12.0918 6.9577 12.0918C8.3926 12.0918 8.62624 12.0878 9.29353 12.0582C9.7469 12.0368 10.0519 11.9759 10.3354 11.8663C10.572 11.7791 10.786 11.6398 10.9615 11.4587C11.1569 11.2639 11.2734 11.0825 11.3696 10.8326C11.4798 10.5474 11.5412 10.2424 11.5621 9.78905C11.5923 9.14958 11.5957 8.92521 11.5957 7.4538C11.5957 6.01948 11.5917 5.78526 11.5621 5.11797C11.5407 4.6646 11.4792 4.35849 11.3696 4.07557C11.2825 3.83893 11.1432 3.62493 10.9621 3.44943C10.7866 3.26813 10.5726 3.12863 10.3359 3.04128C10.0519 2.93113 9.7469 2.87026 9.29353 2.84939C8.65406 2.81924 8.43028 2.81576 6.9577 2.81576M6.9577 1.65625C8.5329 1.65625 8.72943 1.66205 9.34803 1.69104C9.96489 1.72002 10.3858 1.81684 10.7551 1.96062C11.1377 2.10788 11.4601 2.30731 11.7824 2.62908C12.0773 2.9188 12.3055 3.2694 12.4509 3.6564C12.5941 4.02571 12.6915 4.44661 12.7205 5.06405C12.7477 5.68207 12.7552 5.8786 12.7552 7.4538C12.7552 9.02899 12.7495 9.22553 12.7205 9.84354C12.6915 10.4616 12.5941 10.8813 12.4509 11.2512C12.3055 11.6382 12.0773 11.9888 11.7824 12.2785C11.4927 12.5734 11.1421 12.8016 10.7551 12.947C10.3858 13.0902 9.96489 13.1876 9.34803 13.2166C8.72943 13.2438 8.5329 13.2513 6.9577 13.2513C5.38251 13.2513 5.18597 13.2455 4.56737 13.2166C3.95052 13.1876 3.53019 13.0902 3.16031 12.947C2.77331 12.8016 2.42271 12.5734 2.13298 12.2785C1.83807 11.9888 1.60994 11.6382 1.46453 11.2512C1.32075 10.8819 1.22393 10.461 1.19494 9.84354C1.16711 9.22553 1.16016 9.02899 1.16016 7.4538C1.16016 5.8786 1.16595 5.68207 1.19494 5.06405C1.22393 4.44603 1.32075 4.02629 1.46453 3.6564C1.60994 3.2694 1.83807 2.9188 2.13298 2.62908C2.42271 2.33416 2.77331 2.10603 3.16031 1.96062C3.52961 1.81684 3.94994 1.72002 4.56737 1.69104C5.18655 1.66379 5.38309 1.65625 6.95828 1.65625" fill="white"/>
</svg>
