<svg width="12" height="13" viewBox="0 0 12 13" fill="none" xmlns="http://www.w3.org/2000/svg">
    <path d="M5.95828 4.71453C5.497 4.71453 5.05461 4.89778 4.72844 5.22395C4.40226 5.55013 4.21902 5.99252 4.21902 6.4538C4.21902 6.91508 4.40226 7.35747 4.72844 7.68364C5.05461 8.00982 5.497 8.19306 5.95828 8.19306C6.41956 8.19306 6.86195 8.00982 7.18813 7.68364C7.5143 7.35747 7.69755 6.91508 7.69755 6.4538C7.69755 5.99252 7.5143 5.55013 7.18813 5.22395C6.86195 4.89778 6.41956 4.71453 5.95828 4.71453ZM5.95828 3.55502C6.72709 3.55502 7.4644 3.86043 8.00803 4.40405C8.55165 4.94768 8.85706 5.68499 8.85706 6.4538C8.85706 7.2226 8.55165 7.95991 8.00803 8.50354C7.4644 9.04716 6.72709 9.35257 5.95828 9.35257C5.18948 9.35257 4.45217 9.04716 3.90854 8.50354C3.36492 7.95991 3.05951 7.2226 3.05951 6.4538C3.05951 5.68499 3.36492 4.94768 3.90854 4.40405C4.45217 3.86043 5.18948 3.55502 5.95828 3.55502ZM9.72669 3.41008C9.72669 3.60229 9.65034 3.78661 9.51443 3.92252C9.37852 4.05843 9.19419 4.13478 9.00199 4.13478C8.80979 4.13478 8.62547 4.05843 8.48956 3.92252C8.35365 3.78661 8.2773 3.60229 8.2773 3.41008C8.2773 3.21788 8.35365 3.03356 8.48956 2.89765C8.62547 2.76174 8.80979 2.68539 9.00199 2.68539C9.19419 2.68539 9.37852 2.76174 9.51443 2.89765C9.65034 3.03356 9.72669 3.21788 9.72669 3.41008ZM5.95828 1.81576C4.52397 1.81576 4.28975 1.81982 3.62245 1.84939C3.16792 1.87084 2.86297 1.93171 2.58005 2.04186C2.34342 2.12904 2.12942 2.26834 1.95392 2.44943C1.77261 2.62488 1.63312 2.83887 1.54577 3.07557C1.43562 3.35965 1.37474 3.66402 1.35387 4.11797C1.32372 4.75801 1.31967 4.9818 1.31967 6.4538C1.31967 7.88869 1.32372 8.12233 1.35329 8.78963C1.37474 9.24358 1.43562 9.54911 1.54519 9.83145C1.64375 10.0836 1.7597 10.2651 1.95218 10.4576C2.14756 10.6524 2.32902 10.7689 2.57831 10.8651C2.86471 10.9759 3.16966 11.0373 3.62187 11.0582C4.26192 11.0884 4.48571 11.0918 5.9577 11.0918C7.3926 11.0918 7.62624 11.0878 8.29353 11.0582C8.7469 11.0368 9.05185 10.9759 9.33535 10.8663C9.57199 10.7791 9.78598 10.6398 9.96149 10.4587C10.1569 10.2639 10.2734 10.0825 10.3696 9.83261C10.4798 9.54737 10.5412 9.24242 10.5621 8.78905C10.5923 8.14958 10.5957 7.92521 10.5957 6.4538C10.5957 5.01948 10.5917 4.78526 10.5621 4.11797C10.5407 3.6646 10.4792 3.35849 10.3696 3.07557C10.2825 2.83893 10.1432 2.62493 9.96207 2.44943C9.78662 2.26813 9.57262 2.12863 9.33593 2.04128C9.05185 1.93113 8.7469 1.87026 8.29353 1.84939C7.65406 1.81924 7.43028 1.81576 5.9577 1.81576M5.9577 0.65625C7.5329 0.65625 7.72943 0.662048 8.34803 0.691035C8.96489 0.720023 9.38579 0.816842 9.7551 0.960621C10.1377 1.10788 10.4601 1.30731 10.7824 1.62908C11.0773 1.9188 11.3055 2.2694 11.4509 2.6564C11.5941 3.02571 11.6915 3.44661 11.7205 4.06405C11.7477 4.68207 11.7552 4.8786 11.7552 6.4538C11.7552 8.02899 11.7495 8.22553 11.7205 8.84354C11.6915 9.46156 11.5941 9.88131 11.4509 10.2512C11.3055 10.6382 11.0773 10.9888 10.7824 11.2785C10.4927 11.5734 10.1421 11.8016 9.7551 11.947C9.38579 12.0902 8.96489 12.1876 8.34803 12.2166C7.72943 12.2438 7.5329 12.2513 5.9577 12.2513C4.38251 12.2513 4.18597 12.2455 3.56737 12.2166C2.95052 12.1876 2.53019 12.0902 2.16031 11.947C1.77331 11.8016 1.42271 11.5734 1.13298 11.2785C0.838067 10.9888 0.609939 10.6382 0.464527 10.2512C0.320748 9.88189 0.223929 9.46098 0.194941 8.84354C0.167113 8.22553 0.160156 8.02899 0.160156 6.4538C0.160156 4.8786 0.165954 4.68207 0.194941 4.06405C0.223929 3.44603 0.320748 3.02629 0.464527 2.6564C0.609939 2.2694 0.838067 1.9188 1.13298 1.62908C1.42271 1.33416 1.77331 1.10603 2.16031 0.960621C2.52961 0.816842 2.94994 0.720023 3.56737 0.691035C4.18655 0.663787 4.38309 0.65625 5.95828 0.65625" fill="white"/>
</svg>
