<svg width="16" height="16" viewBox="0 0 16 16" fill="none" xmlns="http://www.w3.org/2000/svg">
    <g clip-path="url(#clip0_246_1465)">
        <path d="M8.77606 0.445312C9.62606 0.447579 10.0575 0.452113 10.43 0.46269L10.5765 0.467979C10.7458 0.474024 10.9128 0.481579 11.1145 0.490646C11.9184 0.528424 12.4669 0.655357 12.9482 0.841979C13.4469 1.03389 13.867 1.2938 14.2871 1.71313C14.6714 2.09071 14.9687 2.54762 15.1582 3.05198C15.3449 3.53327 15.4718 4.0818 15.5096 4.88647C15.5186 5.08745 15.5262 5.25442 15.5322 5.42442L15.5368 5.571C15.5481 5.94274 15.5526 6.37416 15.5541 7.22416L15.5549 7.7878V8.77758C15.5567 9.32868 15.5509 9.87979 15.5375 10.4307L15.533 10.5773C15.5269 10.7473 15.5194 10.9143 15.5103 11.1153C15.4725 11.9199 15.3441 12.4677 15.1582 12.9498C14.9687 13.4541 14.6714 13.911 14.2871 14.2886C13.9095 14.6729 13.4526 14.9703 12.9482 15.1598C12.4669 15.3464 11.9184 15.4733 11.1145 15.5111L10.5765 15.5338L10.43 15.5383C10.0575 15.5489 9.62606 15.5542 8.77606 15.5557L8.21241 15.5564H7.22339C6.67203 15.5584 6.12067 15.5526 5.56948 15.539L5.4229 15.5345C5.24354 15.5277 5.06422 15.5199 4.88494 15.5111C4.08103 15.4733 3.5325 15.3464 3.05046 15.1598C2.54637 14.9702 2.08972 14.6729 1.71237 14.2886C1.32775 13.9111 1.03018 13.4542 0.840456 12.9498C0.653834 12.4685 0.5269 11.9199 0.489122 11.1153L0.466456 10.5773L0.462678 10.4307C0.44875 9.8798 0.442453 9.32869 0.443789 8.77758V7.22416C0.441698 6.67306 0.447239 6.12195 0.460411 5.571L0.4657 5.42442C0.471745 5.25442 0.4793 5.08745 0.488367 4.88647C0.526145 4.0818 0.653078 3.53402 0.8397 3.05198C1.02987 2.54742 1.32796 2.09049 1.71312 1.71313C2.09026 1.32897 2.54664 1.03168 3.05046 0.841979C3.5325 0.655357 4.08028 0.528424 4.88494 0.490646C5.08592 0.481579 5.25366 0.474024 5.4229 0.467979L5.56948 0.463446C6.12042 0.450022 6.67153 0.444229 7.22263 0.446068L8.77606 0.445312ZM7.99935 4.22309C6.99742 4.22309 6.03652 4.62111 5.32805 5.32958C4.61958 6.03805 4.22157 6.99894 4.22157 8.00087C4.22157 9.0028 4.61958 9.96369 5.32805 10.6722C6.03652 11.3806 6.99742 11.7786 7.99935 11.7786C9.00127 11.7786 9.96217 11.3806 10.6706 10.6722C11.3791 9.96369 11.7771 9.0028 11.7771 8.00087C11.7771 6.99894 11.3791 6.03805 10.6706 5.32958C9.96217 4.62111 9.00127 4.22309 7.99935 4.22309ZM7.99935 5.7342C8.29701 5.73415 8.59177 5.79273 8.86679 5.9066C9.14181 6.02046 9.39172 6.18738 9.60223 6.39783C9.81275 6.60827 9.97975 6.85812 10.0937 7.1331C10.2077 7.40809 10.2663 7.70283 10.2664 8.00049C10.2664 8.29815 10.2079 8.59291 10.094 8.86794C9.98013 9.14296 9.81321 9.39286 9.60277 9.60338C9.39232 9.81389 9.14247 9.98089 8.86749 10.0949C8.5925 10.2088 8.29776 10.2675 8.0001 10.2675C7.39894 10.2675 6.82241 10.0287 6.39733 9.60364C5.97224 9.17856 5.73343 8.60203 5.73343 8.00087C5.73343 7.39971 5.97224 6.82317 6.39733 6.39809C6.82241 5.97301 7.39894 5.7342 8.0001 5.7342M11.9668 3.08976C11.7163 3.08976 11.4761 3.18926 11.2989 3.36638C11.1218 3.5435 11.0223 3.78372 11.0223 4.0342C11.0223 4.28468 11.1218 4.52491 11.2989 4.70202C11.4761 4.87914 11.7163 4.97865 11.9668 4.97865C12.2172 4.97865 12.4575 4.87914 12.6346 4.70202C12.8117 4.52491 12.9112 4.28468 12.9112 4.0342C12.9112 3.78372 12.8117 3.5435 12.6346 3.36638C12.4575 3.18926 12.2172 3.08976 11.9668 3.08976Z" fill="#11499E"/>
    </g>
    <defs>
        <clipPath id="clip0_246_1465">
            <rect width="16" height="16" fill="white"/>
        </clipPath>
    </defs>
</svg>
