<svg width="57" height="57" viewBox="0 0 57 57" fill="none" xmlns="http://www.w3.org/2000/svg">
    <g opacity="0.55">
        <path d="M16.6777 18.8871C16.6777 15.7883 17.9087 12.8164 20.0999 10.6253C22.291 8.43411 25.2629 7.20313 28.3617 7.20312C31.4604 7.20312 34.4323 8.43411 36.6235 10.6253C38.8146 12.8164 40.0456 15.7883 40.0456 18.8871V25.8974C40.0456 28.9962 38.8146 31.9681 36.6235 34.1592C34.4323 36.3504 31.4604 37.5814 28.3617 37.5814C25.2629 37.5814 22.291 36.3504 20.0999 34.1592C17.9087 31.9681 16.6777 28.9962 16.6777 25.8974V18.8871Z" stroke="white" stroke-width="2.54922"/>
        <path d="M30.6981 18.8867H40.0453M30.6981 25.8971H40.0453M28.3613 44.5914V51.6017" stroke="white" stroke-width="2.54922" stroke-linecap="round"/>
        <path d="M48.8078 23.5612C48.8078 23.0964 48.6232 22.6506 48.2945 22.3219C47.9658 21.9932 47.5201 21.8086 47.0553 21.8086C46.5904 21.8086 46.1447 21.9932 45.816 22.3219C45.4873 22.6506 45.3027 23.0964 45.3027 23.5612H48.8078ZM11.4192 23.5612C11.4192 23.0964 11.2346 22.6506 10.9059 22.3219C10.5772 21.9932 10.1315 21.8086 9.66665 21.8086C9.20184 21.8086 8.75606 21.9932 8.42738 22.3219C8.09871 22.6506 7.91406 23.0964 7.91406 23.5612H11.4192ZM36.5678 40.7226C36.1612 40.9481 35.8609 41.326 35.7329 41.773C35.605 42.22 35.6598 42.6995 35.8854 43.1061C36.111 43.5126 36.4889 43.8129 36.9359 43.9409C37.3829 44.0689 37.8624 44.014 38.2689 43.7884L36.5678 40.7226ZM45.3027 23.5612V25.898H48.8078V23.5612H45.3027ZM11.4192 25.898V23.5612H7.91406V25.898H11.4192ZM28.361 42.8397C23.8677 42.8397 19.5585 41.0548 16.3814 37.8776C13.2042 34.7004 11.4192 30.3912 11.4192 25.898H7.91406C7.91406 31.3208 10.0683 36.5216 13.9028 40.3561C17.7374 44.1906 22.9381 46.3449 28.361 46.3449V42.8397ZM45.3027 25.898C45.3033 28.9239 44.4934 31.8947 42.9573 34.5017C41.4212 37.1087 39.2149 39.2568 36.5678 40.7226L38.2689 43.7884C41.463 42.019 44.125 39.4266 45.9783 36.2805C47.8316 33.1344 48.8086 29.5494 48.8078 25.898H45.3027Z" fill="white"/>
    </g>
</svg>
