<svg width="64" height="64" viewBox="0 0 64 64" fill="none" xmlns="http://www.w3.org/2000/svg">
    <g opacity="0.55">
        <path d="M43.2473 4.18722C43.7527 4.31347 44.1873 4.63527 44.4556 5.08187C44.7239 5.52847 44.8038 6.06332 44.6778 6.56884L43.6953 10.4989C43.6378 10.7544 43.5298 10.9958 43.3777 11.209C43.2256 11.4221 43.0324 11.6027 42.8095 11.7402C42.5865 11.8776 42.3384 11.9691 42.0796 12.0093C41.8208 12.0494 41.5566 12.0375 41.3025 11.9741C41.0485 11.9107 40.8096 11.7971 40.6 11.6401C40.3904 11.4831 40.2143 11.2858 40.0821 11.0597C39.9499 10.8337 39.8641 10.5835 39.83 10.3239C39.7958 10.0642 39.8139 9.80037 39.8831 9.54781L40.8657 5.61776C40.9919 5.11232 41.3137 4.67769 41.7603 4.40943C42.2069 4.14118 42.7418 4.06125 43.2473 4.18722ZM54.9706 8.63604C55.339 9.00454 55.5459 9.50426 55.5459 10.0253C55.5459 10.5464 55.339 11.0461 54.9706 11.4146L51.0406 15.3446C50.8593 15.5323 50.6425 15.682 50.4027 15.785C50.163 15.888 49.9051 15.9422 49.6442 15.9445C49.3833 15.9467 49.1245 15.897 48.8831 15.7982C48.6416 15.6994 48.4222 15.5535 48.2377 15.369C48.0532 15.1845 47.9072 14.9651 47.8084 14.7236C47.7096 14.4821 47.6599 14.2234 47.6622 13.9624C47.6645 13.7015 47.7187 13.4437 47.8216 13.2039C47.9246 12.9642 48.0743 12.7474 48.262 12.5661L52.1921 8.63604C52.5606 8.26766 53.0603 8.06071 53.5813 8.06071C54.1024 8.06071 54.6021 8.26766 54.9706 8.63604ZM25.2201 51.4186C26.2064 53.0606 27.7583 54.286 29.5844 54.8645C31.4104 55.443 33.3848 55.3347 35.1367 54.5602C36.8886 53.7856 38.2973 52.3979 39.0982 50.6579C39.8991 48.918 40.0371 46.9454 39.4862 45.1109L25.2201 51.4186ZM21.6045 53.0142L17.6823 54.7513C16.6675 55.1996 15.5409 55.3306 14.4503 55.1272C13.3597 54.9238 12.356 54.3955 11.5711 53.6115L9.99903 52.0435C9.21404 51.265 8.68371 50.2667 8.47812 49.1805C8.27252 48.0943 8.40133 46.9712 8.84752 45.9597L24.0608 11.3438C24.4212 10.5264 24.9753 9.80905 25.6752 9.25374C26.375 8.69844 27.1995 8.32191 28.0775 8.15669C28.9555 7.99146 29.8605 8.04251 30.7143 8.30543C31.5681 8.56835 32.3451 9.03523 32.978 9.66572L53.9331 30.5579C54.5644 31.1875 55.0326 31.9616 55.2971 32.8131C55.5616 33.6646 55.6145 34.5677 55.4511 35.4442C55.2877 36.3207 54.913 37.1442 54.3595 37.8432C53.806 38.5421 53.0903 39.0956 52.2746 39.4555L43.0979 43.5113C44.068 46.307 43.9513 49.3652 42.771 52.0787C41.5908 54.7923 39.4333 56.9629 36.7268 58.1595C34.0204 59.3561 30.963 59.4912 28.1615 58.538C25.3601 57.5848 23.0195 55.6131 21.6045 53.0142ZM57.5094 19.8485H53.5794C53.0582 19.8485 52.5584 20.0555 52.1899 20.424C51.8214 20.7925 51.6143 21.2923 51.6143 21.8135C51.6143 22.3347 51.8214 22.8345 52.1899 23.203C52.5584 23.5715 53.0582 23.7785 53.5794 23.7785H57.5094C58.0306 23.7785 58.5304 23.5715 58.8989 23.203C59.2674 22.8345 59.4745 22.3347 59.4745 21.8135C59.4745 21.2923 59.2674 20.7925 58.8989 20.424C58.5304 20.0555 58.0306 19.8485 57.5094 19.8485ZM27.6607 12.9237L12.4435 47.5396C12.3155 47.8255 12.2781 48.1437 12.3364 48.4515C12.3947 48.7593 12.546 49.0418 12.7697 49.261L14.3457 50.833C14.5702 51.0562 14.857 51.2064 15.1683 51.2639C15.4797 51.3214 15.8011 51.2835 16.0906 51.1553L50.6829 35.8595C50.9133 35.7576 51.1154 35.6011 51.2718 35.4036C51.4282 35.2062 51.5341 34.9736 51.5806 34.726C51.627 34.4784 51.6125 34.2232 51.5382 33.9825C51.464 33.7418 51.3323 33.5227 51.1545 33.3443L30.2074 12.4443C30.027 12.265 29.8059 12.1321 29.5629 12.0571C29.3199 11.982 29.0624 11.9671 28.8123 12.0134C28.5623 12.0598 28.3273 12.1661 28.1274 12.3233C27.9275 12.4805 27.7687 12.6838 27.6646 12.9159" fill="white"/>
    </g>
</svg>
