<svg width="78" height="110" viewBox="0 0 78 110" fill="none" xmlns="http://www.w3.org/2000/svg">
    <g clip-path="url(#clip0_96_819)">
        <path d="M56.3834 90.947C56.36 94.7776 60.7349 94.5473 60.2604 97.3722C59.7852 100.197 57.468 100.296 58.2293 102.78C58.9914 105.265 61.9289 104.495 64.2869 102.223C69.0023 97.6792 68.7618 90.6541 65.7532 88.3695C62.0558 85.5624 56.4068 87.1163 56.3834 90.947Z" fill="#8395DE" stroke="#8395DE" stroke-width="2.66667"/>
        <path d="M65.1323 85.5655C65.6643 85.8606 66.4303 85.368 66.8431 84.4652C67.256 83.5624 67.1594 82.5913 66.6274 82.2961C66.0953 82.001 65.3294 82.4936 64.9165 83.3964C64.5037 84.2992 64.6003 85.2703 65.1323 85.5655Z" fill="#8395DE"/>
        <path d="M62.457 84.7406C63.0422 84.87 63.6723 84.175 63.8646 83.1883C64.0568 82.2017 63.7383 81.2971 63.1532 81.1677C62.5681 81.0384 61.9379 81.7334 61.7457 82.72C61.5534 83.7067 61.8719 84.6113 62.457 84.7406Z" fill="#8395DE"/>
        <path d="M59.6999 85.0421C60.2949 84.9503 60.6929 84.0684 60.5889 83.0723C60.4849 82.0763 59.9183 81.3433 59.3234 81.4352C58.7284 81.5271 58.3304 82.409 58.4344 83.405C58.5383 84.4011 59.1049 85.134 59.6999 85.0421Z" fill="#8395DE"/>
        <path d="M55.5265 85.6722C56.283 85.1117 56.3725 83.755 55.7262 82.642C55.08 81.5289 53.9428 81.0809 53.1863 81.6414C52.4297 82.2019 52.3403 83.5586 52.9865 84.6717C53.6328 85.7847 54.7699 86.2327 55.5265 85.6722Z" fill="#8395DE" stroke="#8395DE" stroke-width="2.66667"/>
        <path d="M67.4856 87.1763C67.9617 87.5715 68.7897 87.2334 69.3348 86.4212C69.88 85.609 69.9359 84.6302 69.4598 84.2351C68.9836 83.8399 68.1557 84.178 67.6106 84.9902C67.0654 85.8024 67.0095 86.7812 67.4856 87.1763Z" fill="#8395DE"/>
    </g>
    <g clip-path="url(#clip1_96_819)">
        <path d="M32.8939 65.0729C34.2905 68.5129 30.7706 70.4544 32.1598 72.7666C33.5494 75.0781 35.4055 74.029 35.7011 76.6414C35.9965 79.2545 33.4115 80.0035 30.7416 79.115C25.4022 77.3373 23.0636 70.8893 24.6052 67.353C26.5001 63.0075 31.4973 61.6328 32.8939 65.0729Z" fill="#8395DE" stroke="#8395DE" stroke-width="2.66667"/>
        <path d="M24.0852 64.5254C23.7734 65.0527 22.9944 64.9851 22.3452 64.3745C21.6961 63.7638 21.4225 62.8413 21.7343 62.3141C22.0461 61.7868 22.8251 61.8544 23.4743 62.4651C24.1235 63.0757 24.397 63.9982 24.0852 64.5254Z" fill="#8395DE"/>
        <path d="M25.891 62.4681C25.4778 62.872 24.7327 62.5553 24.2267 61.7608C23.7207 60.9662 23.6454 59.9947 24.0585 59.5908C24.4717 59.1868 25.2169 59.5035 25.7229 60.298C26.2289 61.0926 26.3042 62.0641 25.891 62.4681Z" fill="#8395DE"/>
        <path d="M28.1661 61.3884C27.6656 61.5979 27.0356 60.9987 26.7589 60.0502C26.4822 59.1017 26.6636 58.163 27.1641 57.9535C27.6646 57.744 28.2946 58.3431 28.5713 59.2917C28.848 60.2402 28.6665 61.1789 28.1661 61.3884Z" fill="#8395DE"/>
        <path d="M31.6723 59.9071C30.8763 59.7737 30.3179 58.5952 30.4251 57.2748C30.5323 55.9545 31.2646 54.9923 32.0606 55.1257C32.8566 55.259 33.415 56.4375 33.3078 57.7579C33.2006 59.0782 32.4684 60.0405 31.6723 59.9071Z" fill="#8395DE" stroke="#8395DE" stroke-width="2.66667"/>
        <path d="M22.8183 67.1314C22.5864 67.7214 21.8143 67.8235 21.0938 67.3594C20.3733 66.8954 19.9772 66.0409 20.209 65.451C20.4409 64.8611 21.213 64.759 21.9335 65.223C22.6541 65.6871 23.0502 66.5415 22.8183 67.1314Z" fill="#8395DE"/>
    </g>
    <g clip-path="url(#clip2_96_819)">
        <path d="M45.3834 32.947C45.36 36.7776 49.7349 36.5473 49.2604 39.3722C48.7852 42.1967 46.468 42.2956 47.2293 44.7799C47.9914 47.2647 50.9289 46.4945 53.2869 44.2229C58.0023 39.6792 57.7618 32.6541 54.7532 30.3695C51.0558 27.5624 45.4068 29.1163 45.3834 32.947Z" fill="#8395DE" stroke="#8395DE" stroke-width="2.66667"/>
        <path d="M54.1323 27.5655C54.6643 27.8606 55.4303 27.368 55.8431 26.4652C56.256 25.5624 56.1594 24.5913 55.6274 24.2961C55.0953 24.001 54.3294 24.4936 53.9165 25.3964C53.5037 26.2992 53.6003 27.2703 54.1323 27.5655Z" fill="#8395DE"/>
        <path d="M51.457 26.7406C52.0422 26.87 52.6723 26.175 52.8646 25.1883C53.0568 24.2017 52.7383 23.2971 52.1532 23.1677C51.5681 23.0384 50.9379 23.7334 50.7457 24.72C50.5534 25.7067 50.8719 26.6113 51.457 26.7406Z" fill="#8395DE"/>
        <path d="M48.6999 27.0421C49.2949 26.9503 49.6929 26.0684 49.5889 25.0723C49.4849 24.0763 48.9183 23.3433 48.3234 23.4352C47.7284 23.5271 47.3304 24.409 47.4344 25.405C47.5383 26.4011 48.1049 27.134 48.6999 27.0421Z" fill="#8395DE"/>
        <path d="M44.5265 27.6722C45.283 27.1117 45.3725 25.755 44.7262 24.642C44.08 23.5289 42.9428 23.0809 42.1863 23.6414C41.4297 24.2019 41.3403 25.5586 41.9865 26.6717C42.6328 27.7847 43.7699 28.2327 44.5265 27.6722Z" fill="#8395DE" stroke="#8395DE" stroke-width="2.66667"/>
        <path d="M56.4856 29.1763C56.9617 29.5715 57.7897 29.2334 58.3348 28.4212C58.88 27.609 58.9359 26.6302 58.4598 26.2351C57.9836 25.8399 57.1557 26.178 56.6106 26.9902C56.0654 27.8024 56.0095 28.7812 56.4856 29.1763Z" fill="#8395DE"/>
    </g>
    <g clip-path="url(#clip3_96_819)">
        <path d="M19.909 14.328C21.3926 17.7441 17.3893 19.8185 18.8926 22.0993C20.3963 24.3794 22.5079 23.26 22.7751 25.8803C23.0419 28.5013 20.1188 29.3433 17.1411 28.5395C11.1861 26.9311 8.71895 20.5184 10.5392 16.9055C12.7765 12.4658 18.4254 10.9118 19.909 14.328Z" fill="#8395DE" stroke="#8395DE" stroke-width="2.66667"/>
        <path d="M10.026 14.0723C9.66252 14.6138 8.78892 14.5722 8.07472 13.9795C7.36052 13.3867 7.07617 12.4672 7.4396 11.9257C7.80303 11.3843 8.67663 11.4258 9.39083 12.0186C10.105 12.6114 10.3894 13.5309 10.026 14.0723Z" fill="#8395DE"/>
        <path d="M12.1051 11.9403C11.6308 12.361 10.8014 12.0675 10.2527 11.2848C9.7039 10.502 9.64351 9.52632 10.1178 9.10557C10.5921 8.68483 11.4214 8.97832 11.9702 9.76111C12.519 10.5439 12.5794 11.5195 12.1051 11.9403Z" fill="#8395DE"/>
        <path d="M14.6864 10.7745C14.1189 11.0025 13.4259 10.4207 13.1387 9.47505C12.8514 8.52944 13.0786 7.57811 13.6462 7.35019C14.2137 7.12227 14.9067 7.70407 15.1939 8.64968C15.4812 9.59529 15.254 10.5466 14.6864 10.7745Z" fill="#8395DE"/>
        <path d="M18.6632 9.16443C17.7721 9.05718 17.1741 7.8896 17.3274 6.55656C17.4808 5.22352 18.3275 4.22982 19.2186 4.33706C20.1097 4.44431 20.7077 5.61189 20.5544 6.94493C20.401 8.27797 19.5543 9.27167 18.6632 9.16443Z" fill="#8395DE" stroke="#8395DE" stroke-width="2.66667"/>
        <path d="M8.53605 16.7399C8.26081 17.3418 7.39077 17.4708 6.59276 17.0281C5.79474 16.5853 5.37094 15.7385 5.64618 15.1367C5.92141 14.5348 6.79145 14.4058 7.58947 14.8485C8.38748 15.2912 8.81128 16.138 8.53605 16.7399Z" fill="#8395DE"/>
    </g>
    <defs>
        <clipPath id="clip0_96_819">
            <rect width="26.3417" height="28.8485" fill="white" transform="matrix(0.964184 -0.265234 0.197526 0.980298 46 80.9844)"/>
        </clipPath>
        <clipPath id="clip1_96_819">
            <rect width="23.3022" height="28.8485" fill="white" transform="matrix(-0.964184 0.265234 0.197526 0.980298 37.4688 51)"/>
        </clipPath>
        <clipPath id="clip2_96_819">
            <rect width="26.3417" height="28.8485" fill="white" transform="matrix(0.964184 -0.265234 0.197526 0.980298 35 22.9844)"/>
        </clipPath>
        <clipPath id="clip3_96_819">
            <rect width="26.3417" height="28.8485" fill="white" transform="matrix(-0.964184 0.265234 0.197526 0.980298 25.3984 0)"/>
        </clipPath>
    </defs>
</svg>
