<svg width="16" height="16" viewBox="0 0 16 16" fill="none" xmlns="http://www.w3.org/2000/svg">
    <path fill-rule="evenodd" clip-rule="evenodd" d="M11.2821 15.832C12.5333 15.832 13.7334 15.3466 14.6181 14.4826C15.5029 13.6185 16 12.4466 16 11.2247V4.8144C16 3.59245 15.5029 2.42055 14.6181 1.5565C13.7334 0.692449 12.5333 0.207031 11.2821 0.207031H4.71795C3.46667 0.207031 2.26664 0.692449 1.38186 1.5565C0.497068 2.42055 0 3.59245 0 4.8144V11.2247C0 12.4466 0.497068 13.6185 1.38186 14.4826C2.26664 15.3466 3.46667 15.832 4.71795 15.832H11.2821ZM9.4039 3.02194C9.35747 2.88687 9.26341 2.77231 9.13851 2.69869C9.0136 2.62507 8.86598 2.59718 8.72197 2.61999C8.57797 2.6428 8.44694 2.71484 8.35227 2.82324C8.25761 2.93165 8.20546 3.06937 8.20513 3.21184V10.4234C8.20513 10.78 8.09685 11.1285 7.894 11.425C7.69114 11.7215 7.40281 11.9526 7.06547 12.089C6.72813 12.2255 6.35693 12.2612 5.99881 12.1916C5.64069 12.1221 5.31174 11.9503 5.05355 11.6982C4.79536 11.4461 4.61953 11.1248 4.54829 10.7751C4.47706 10.4254 4.51362 10.0629 4.65335 9.73344C4.79308 9.40401 5.02971 9.12244 5.33331 8.92433C5.6369 8.72623 5.99384 8.62049 6.35897 8.62049C6.52218 8.62049 6.67871 8.55718 6.79412 8.44447C6.90952 8.33177 6.97436 8.17892 6.97436 8.01953C6.97436 7.86015 6.90952 7.70729 6.79412 7.59459C6.67871 7.48189 6.52218 7.41857 6.35897 7.41857C5.75042 7.41857 5.15552 7.5948 4.64953 7.92497C4.14353 8.25514 3.74915 8.72443 3.51627 9.27349C3.28338 9.82254 3.22245 10.4267 3.34117 11.0096C3.4599 11.5925 3.75295 12.1279 4.18326 12.5481C4.61358 12.9683 5.16183 13.2545 5.7587 13.3704C6.35556 13.4864 6.97423 13.4269 7.53646 13.1995C8.0987 12.972 8.57925 12.5869 8.91734 12.0928C9.25544 11.5986 9.4359 11.0177 9.4359 10.4234V5.18139C10.0652 5.7519 10.9514 6.21665 12.1026 6.21665C12.2658 6.21665 12.4223 6.15333 12.5377 6.04063C12.6531 5.92793 12.7179 5.77507 12.7179 5.61569C12.7179 5.4563 12.6531 5.30344 12.5377 5.19074C12.4223 5.07804 12.2658 5.01472 12.1026 5.01472C11.305 5.01472 10.6987 4.69421 10.249 4.27835C9.78954 3.85206 9.51221 3.33844 9.4039 3.02194Z" fill="#11499E"/>
</svg>
