<svg width="12" height="12" viewBox="0 0 12 12" fill="none" xmlns="http://www.w3.org/2000/svg">
    <path d="M9.52041 1.88C8.99739 1.35968 8.7091 0.691599 8.70918 0H6.34439V8.26667C6.32653 8.71413 6.10984 9.13805 5.74003 9.449C5.37023 9.75995 4.87622 9.9336 4.36224 9.93333C3.27551 9.93333 2.37245 9.16 2.37245 8.2C2.37245 7.05333 3.64286 6.19333 4.95153 6.54667V4.44C2.31122 4.13333 0 5.92 0 8.2C0 10.42 2.11225 12 4.35459 12C6.75765 12 8.70918 10.3 8.70918 8.2V4.00667C9.66811 4.60657 10.8194 4.92843 12 4.92667V2.86667C12 2.86667 10.5612 2.92667 9.52041 1.88Z" fill="white"/>
</svg>
