<svg width="77" height="63" viewBox="0 0 77 63" fill="none" xmlns="http://www.w3.org/2000/svg">
    <g opacity="0.55">
        <path opacity="0.2" fill-rule="evenodd" clip-rule="evenodd" d="M49.7116 11.2578H26.7686C24.2332 11.2578 21.8017 12.265 20.0089 14.0578C18.2162 15.8505 17.209 18.282 17.209 20.8174V39.9366C17.209 42.4719 18.2162 44.9034 20.0089 46.6962C21.8017 48.489 24.2332 49.4962 26.7686 49.4962H49.7116C52.2469 49.4962 54.6785 48.489 56.4712 46.6962C58.264 44.9034 59.2712 42.4719 59.2712 39.9366V39.8448L68.2495 45.8291C68.5374 46.0207 68.8719 46.1306 69.2174 46.1471C69.5628 46.1637 69.9063 46.0862 70.2112 45.9229C70.516 45.7597 70.771 45.5168 70.9487 45.2202C71.1265 44.9235 71.2205 44.5842 71.2206 44.2384V17.4715C71.2205 17.1257 71.1265 16.7864 70.9487 16.4897C70.771 16.1931 70.516 15.9502 70.2112 15.787C69.9063 15.6238 69.5628 15.5463 69.2174 15.5628C68.8719 15.5793 68.5374 15.6892 68.2495 15.8808L59.2712 21.8651V20.8174C59.2712 18.282 58.264 15.8505 56.4712 14.0578C54.6785 12.265 52.2469 11.2578 49.7116 11.2578Z" fill="white"/>
        <path fill-rule="evenodd" clip-rule="evenodd" d="M42.0631 3.60938H19.1201C16.5848 3.60938 14.1533 4.61654 12.3605 6.40931C10.5677 8.20208 9.56055 10.6336 9.56055 13.169V32.2881C9.56055 34.8235 10.5677 37.255 12.3605 39.0478C14.1533 40.8405 16.5848 41.8477 19.1201 41.8477H42.0631C44.5985 41.8477 47.03 40.8405 48.8228 39.0478C50.6156 37.255 51.6227 34.8235 51.6227 32.2881V13.169C51.6227 10.6336 50.6156 8.20208 48.8228 6.40931C47.03 4.61654 44.5985 3.60938 42.0631 3.60938ZM13.3844 13.169C13.3844 11.6477 13.9887 10.1888 15.0643 9.11317C16.14 8.03751 17.5989 7.43321 19.1201 7.43321H42.0631C43.5844 7.43321 45.0433 8.03751 46.1189 9.11317C47.1946 10.1888 47.7989 11.6477 47.7989 13.169V32.2881C47.7989 33.8093 47.1946 35.2683 46.1189 36.3439C45.0433 37.4196 43.5844 38.0239 42.0631 38.0239H19.1201C17.5989 38.0239 16.14 37.4196 15.0643 36.3439C13.9887 35.2683 13.3844 33.8093 13.3844 32.2881V13.169Z" fill="white"/>
        <path fill-rule="evenodd" clip-rule="evenodd" d="M60.1419 7.73593L48.7545 15.1427C48.4899 15.3142 48.2719 15.5485 48.1197 15.8247C47.9676 16.1009 47.8862 16.4105 47.8827 16.7258L47.7794 26.7136C47.7755 27.0357 47.853 27.3535 48.0048 27.6376C48.1565 27.9217 48.3776 28.1629 48.6474 28.3387L60.1342 35.8029C60.4228 35.9909 60.7567 36.0975 61.1009 36.1114C61.445 36.1254 61.7865 36.0461 62.0893 35.882C62.392 35.7178 62.6449 35.475 62.821 35.179C62.9972 34.8831 63.0901 34.5451 63.0901 34.2007V9.34194C63.0908 8.99721 62.9984 8.65869 62.8225 8.36221C62.6466 8.06573 62.3938 7.82232 62.0909 7.65774C61.788 7.49316 61.4463 7.41354 61.1018 7.42731C60.7574 7.44107 60.4231 7.5477 60.1342 7.73593M59.2701 30.6789L51.6186 25.7041L51.6989 17.7888L59.2701 12.8675V30.6789Z" fill="white"/>
    </g>
</svg>
