<svg width="66" height="215" viewBox="0 0 66 215" fill="none" xmlns="http://www.w3.org/2000/svg">
    <path d="M5.66667 3C5.66667 4.47276 4.47276 5.66667 3 5.66667C1.52724 5.66667 0.333336 4.47276 0.333336 3C0.333336 1.52724 1.52724 0.333333 3 0.333333C4.47276 0.333333 5.66667 1.52724 5.66667 3ZM44.4762 111.742L44.3147 111.269L44.4762 111.742ZM19.9677 214L23.0037 209.089L25.7386 214.174L19.9677 214ZM29.8565 207.815C32.1649 206.389 34.2877 204.981 36.2361 203.592L36.8165 204.407C34.8487 205.809 32.7075 207.229 30.3822 208.666L29.8565 207.815ZM42.2914 198.867C44.404 197.046 46.2189 195.259 47.7643 193.506L48.5143 194.168C46.9353 195.958 45.0871 197.777 42.9444 199.625L42.2914 198.867ZM52.1701 187.417C53.5378 184.998 54.4116 182.649 54.8773 180.366L55.8572 180.566C55.3689 182.96 54.4557 185.407 53.0406 187.909L52.1701 187.417ZM55.0192 172.885C54.623 170.429 53.8144 168.036 52.7043 165.7L53.6075 165.271C54.7501 167.676 55.5924 170.16 56.0065 172.726L55.0192 172.885ZM48.7957 159.158C47.3385 157.105 45.7214 155.102 44.035 153.145L44.7925 152.492C46.4919 154.464 48.1303 156.492 49.6112 158.579L48.7957 159.158ZM38.8736 147.422C37.0696 145.476 35.2888 143.572 33.6464 141.717L34.3951 141.054C36.0278 142.898 37.7979 144.79 39.6071 146.742L38.8736 147.422ZM28.7948 135.657C27.1293 133.226 25.9247 130.835 25.512 128.484L26.4969 128.311C26.8742 130.46 27.9906 132.714 29.6198 135.092L28.7948 135.657ZM27.4719 120.894C28.8049 119.178 30.8033 117.528 33.5744 115.928L34.0742 116.794C31.3745 118.353 29.4908 119.925 28.2617 121.508L27.4719 120.894ZM40.5549 112.644C41.7285 112.183 42.9806 111.725 44.3147 111.269L44.6378 112.216C43.3167 112.667 42.0789 113.12 40.9207 113.575L40.5549 112.644ZM44.3147 111.269C45.6137 110.826 46.841 110.364 47.9992 109.886L48.3808 110.811C47.202 111.297 45.955 111.766 44.6378 112.216L44.3147 111.269ZM54.8411 106.381C57.2408 104.838 59.138 103.18 60.5919 101.423L61.3623 102.06C59.8327 103.909 57.8537 105.633 55.3818 107.222L54.8411 106.381ZM64.0033 94.7585C64.5902 92.3801 64.6426 89.8608 64.2365 87.219L65.2249 87.0671C65.6475 89.8164 65.5978 92.471 64.9742 94.9981L64.0033 94.7585ZM62.1077 79.8705C61.1859 77.6196 60.0216 75.3103 58.6567 72.9548L59.5219 72.4535C60.9048 74.8399 62.0908 77.1903 63.0331 79.4915L62.1077 79.8705ZM54.4646 66.4204C53.03 64.3645 51.4809 62.2862 49.844 60.193L50.6318 59.577C52.2778 61.6818 53.8379 63.7749 55.2847 65.8482L54.4646 66.4204ZM44.9272 54.1504C43.2774 52.1913 41.5747 50.2266 39.8404 48.2623L40.59 47.6004C42.3283 49.5692 44.0362 51.5399 45.6921 53.5063L44.9272 54.1504ZM34.6376 42.4579C32.8881 40.5295 31.1291 38.608 29.3803 36.6988L30.1177 36.0234C31.8664 37.9325 33.627 39.8556 35.3783 41.786L34.6376 42.4579ZM24.1225 30.9443C22.3403 28.9829 20.5923 27.0416 18.9022 25.1274L19.6518 24.4655C21.3377 26.3749 23.0823 28.3125 24.8626 30.2718L24.1225 30.9443ZM13.8077 19.2078C12.0725 17.1274 10.4406 15.089 8.94619 13.1027L9.74528 12.5015C11.2274 14.4714 12.8484 16.4964 14.5756 18.5673L13.8077 19.2078ZM4.49178 6.64245C3.77581 5.48054 3.1274 4.34174 2.55529 3.22855L3.44471 2.77145C4.00331 3.85835 4.63861 4.97453 5.34312 6.11784L4.49178 6.64245Z" fill="#677FDA"/>
</svg>
