<svg width="14" height="12" viewBox="0 0 14 12" fill="none" xmlns="http://www.w3.org/2000/svg">
    <path d="M9.14189 7.11604C9.1866 6.74721 9.22013 6.37839 9.22013 5.99839C9.22013 5.61839 9.1866 5.24957 9.14189 4.88074H11.0307C11.1201 5.23839 11.176 5.6128 11.176 5.99839C11.176 6.38398 11.1201 6.75839 11.0307 7.11604M8.15278 10.2231C8.48807 9.6028 8.74513 8.93221 8.92395 8.23369H10.5725C10.0311 9.16596 9.17213 9.87215 8.15278 10.2231ZM8.01307 7.11604H5.39778C5.34189 6.74721 5.30836 6.37839 5.30836 5.99839C5.30836 5.61839 5.34189 5.24398 5.39778 4.88074H8.01307C8.06336 5.24398 8.10248 5.61839 8.10248 5.99839C8.10248 6.37839 8.06336 6.74721 8.01307 7.11604ZM6.70542 10.4466C6.2416 9.77604 5.86719 9.0328 5.63807 8.23369H7.77278C7.54366 9.0328 7.16925 9.77604 6.70542 10.4466ZM4.47013 3.7631H2.83836C3.37408 2.8282 4.23244 2.12085 5.25248 1.77369C4.91719 2.39398 4.66572 3.06457 4.47013 3.7631ZM2.83836 8.23369H4.47013C4.66572 8.93221 4.91719 9.6028 5.25248 10.2231C4.23445 9.87232 3.37723 9.16591 2.83836 8.23369ZM2.38013 7.11604C2.29072 6.75839 2.23483 6.38398 2.23483 5.99839C2.23483 5.6128 2.29072 5.23839 2.38013 4.88074H4.26895C4.22425 5.24957 4.19072 5.61839 4.19072 5.99839C4.19072 6.37839 4.22425 6.74721 4.26895 7.11604M6.70542 1.54457C7.16925 2.21516 7.54366 2.96398 7.77278 3.7631H5.63807C5.86719 2.96398 6.2416 2.21516 6.70542 1.54457ZM10.5725 3.7631H8.92395C8.74879 3.07106 8.48981 2.40298 8.15278 1.77369C9.18101 2.12574 10.036 2.83545 10.5725 3.7631ZM6.70542 0.410156C3.61513 0.410156 1.11719 2.92486 1.11719 5.99839C1.11719 7.48048 1.70595 8.90187 2.75394 9.94987C3.27286 10.4688 3.8889 10.8804 4.5669 11.1612C5.24489 11.4421 5.97157 11.5866 6.70542 11.5866C8.18751 11.5866 9.6089 10.9979 10.6569 9.94987C11.7049 8.90187 12.2937 7.48048 12.2937 5.99839C12.2937 5.26453 12.1491 4.53786 11.8683 3.85987C11.5874 3.18187 11.1758 2.56583 10.6569 2.04691C10.138 1.528 9.52194 1.11637 8.84395 0.835535C8.16595 0.5547 7.43928 0.410156 6.70542 0.410156Z" fill="white"/>
</svg>
