<svg width="16" height="16" viewBox="0 0 16 16" fill="none" xmlns="http://www.w3.org/2000/svg">
    <g clip-path="url(#clip0_246_1463)">
        <path d="M7.99992 0.382812C12.2079 0.382812 15.619 3.79386 15.619 8.00186C15.619 12.2099 12.2079 15.6209 7.99992 15.6209C6.65345 15.6232 5.33065 15.2669 4.16754 14.5885L0.383919 15.6209L1.41401 11.8358C0.735125 10.6723 0.378511 9.34892 0.380871 8.00186C0.380871 3.79386 3.79192 0.382812 7.99992 0.382812ZM5.40335 4.42091L5.25097 4.427C5.15244 4.43379 5.05618 4.45967 4.96754 4.50319C4.88493 4.55006 4.80949 4.60856 4.74354 4.67691C4.65211 4.763 4.6003 4.83767 4.54468 4.91005C4.26287 5.27645 4.11114 5.72629 4.11344 6.18853C4.11497 6.56186 4.21249 6.92529 4.36487 7.2651C4.67649 7.95234 5.18925 8.67996 5.86582 9.35424C6.02887 9.51653 6.18887 9.67957 6.36106 9.83119C7.20177 10.5713 8.20356 11.1051 9.28678 11.3901L9.71954 11.4563C9.86049 11.464 10.0014 11.4533 10.1432 11.4464C10.365 11.4347 10.5816 11.3747 10.7778 11.2704C10.8775 11.2189 10.9749 11.163 11.0696 11.1028C11.0696 11.1028 11.1019 11.081 11.1649 11.0342C11.2677 10.9581 11.331 10.904 11.4163 10.8148C11.4803 10.7488 11.5336 10.6721 11.5763 10.5847C11.6357 10.4605 11.6952 10.2236 11.7195 10.0262C11.7378 9.87538 11.7325 9.7931 11.7302 9.74205C11.7272 9.66053 11.6593 9.57596 11.5854 9.54015L11.142 9.34129C11.142 9.34129 10.4792 9.05253 10.0738 8.86815C10.0314 8.84968 9.98595 8.83909 9.93973 8.83691C9.88759 8.83145 9.8349 8.83727 9.7852 8.85397C9.73551 8.87066 9.68999 8.89784 9.65173 8.93367C9.64792 8.93215 9.59687 8.97557 9.04601 9.643C9.0144 9.68549 8.97085 9.7176 8.92091 9.73524C8.87098 9.75288 8.81692 9.75525 8.76563 9.74205C8.71598 9.72882 8.66734 9.71201 8.62011 9.69177C8.52563 9.65215 8.49287 9.63691 8.42811 9.60948C7.99068 9.41893 7.58578 9.16108 7.22811 8.84529C7.13211 8.76148 7.04297 8.67005 6.95154 8.58167C6.65181 8.29459 6.39059 7.96985 6.17439 7.61557L6.12944 7.54319C6.09764 7.49428 6.07157 7.44187 6.05173 7.387C6.02278 7.275 6.0982 7.1851 6.0982 7.1851C6.0982 7.1851 6.28335 6.98243 6.36944 6.87272C6.45325 6.76605 6.52411 6.66243 6.56982 6.58853C6.65973 6.44377 6.68792 6.29519 6.64068 6.18015C6.42735 5.659 6.2069 5.14065 5.97935 4.6251C5.93439 4.523 5.80106 4.44986 5.67992 4.43538C5.63878 4.4303 5.59763 4.42624 5.55649 4.42319C5.45419 4.41733 5.35161 4.41834 5.24944 4.42624L5.40335 4.42091Z" fill="#11499E"/>
    </g>
    <defs>
        <clipPath id="clip0_246_1463">
            <rect width="16" height="16" fill="white"/>
        </clipPath>
    </defs>
</svg>
